<svg xmlns="http://www.w3.org/2000/svg" viewBox="0 0 512 414" width="512" height="414">
	<style>
		tspan { white-space:pre }
		.shp0 { fill: #000000 } 
	</style>
	<g id="Layer">
		<path id="Layer" fill-rule="evenodd" class="shp0" d="M123.11 180.69L78.11 225.69L45 225.69L45 180.69L0 180.69L0 0.69L397.5 0.69L397.5 180.69L123.11 180.69ZM116.89 165.69L382.5 165.69L382.5 15.69L15 15.69L15 165.69L60 165.69L60 210.69L71.89 210.69L116.89 165.69Z" />
		<path id="Layer" fill-rule="evenodd" class="shp0" d="M511.88 225.69L511.88 413.19L114.38 413.19L114.38 225.69L388.77 225.69L433.77 180.69L466.88 180.69L466.88 225.69L511.88 225.69ZM496.88 240.69L451.88 240.69L451.88 195.69L439.98 195.69L394.98 240.69L129.38 240.69L129.38 398.19L496.88 398.19L496.88 240.69Z" />
		<path id="Layer" class="shp0" d="M45 38.19L90 38.19L90 53.19L45 53.19L45 38.19Z" />
		<path id="Layer" class="shp0" d="M105 38.19L225 38.19L225 53.19L105 53.19L105 38.19Z" />
		<path id="Layer" class="shp0" d="M45 68.19L135 68.19L135 83.19L45 83.19L45 68.19Z" />
		<path id="Layer" class="shp0" d="M150 68.19L262.5 68.19L262.5 83.19L150 83.19L150 68.19Z" />
		<path id="Layer" class="shp0" d="M45 98.19L97.5 98.19L97.5 113.19L45 113.19L45 98.19Z" />
		<path id="Layer" class="shp0" d="M45 128.19L60 128.19L60 143.19L45 143.19L45 128.19Z" />
		<path id="Layer" class="shp0" d="M75 128.19L90 128.19L90 143.19L75 143.19L75 128.19Z" />
		<path id="Layer" class="shp0" d="M105 128.19L120 128.19L120 143.19L105 143.19L105 128.19Z" />
		<path id="Layer" class="shp0" d="M345 128.19L360 128.19L360 143.19L345 143.19L345 128.19Z" />
		<path id="Layer" class="shp0" d="M150 263.19L352.5 263.19L352.5 278.19L150 278.19L150 263.19Z" />
		<path id="Layer" class="shp0" d="M150 300.69L165 300.69L165 315.69L150 315.69L150 300.69Z" />
		<path id="Layer" class="shp0" d="M180 300.69L300 300.69L300 315.69L180 315.69L180 300.69Z" />
		<path id="Layer" class="shp0" d="M150 330.69L165 330.69L165 345.69L150 345.69L150 330.69Z" />
		<path id="Layer" class="shp0" d="M180 330.69L300 330.69L300 345.69L180 345.69L180 330.69Z" />
		<path id="Layer" class="shp0" d="M150 360.69L165 360.69L165 375.69L150 375.69L150 360.69Z" />
		<path id="Layer" class="shp0" d="M180 360.69L300 360.69L300 375.69L180 375.69L180 360.69Z" />
		<path id="Layer" class="shp0" d="M457.5 263.19L472.5 263.19L472.5 278.19L457.5 278.19L457.5 263.19Z" />
	</g>
</svg>