<svg xmlns="http://www.w3.org/2000/svg" viewBox="0 0 512 512" width="512" height="512">
	<style>
		tspan { white-space:pre }
		.shp0 { fill: #000000 } 
	</style>
	<g id="Layer">
		<g id="Layer">
			<g id="Layer">
				<path id="Layer" fill-rule="evenodd" class="shp0" d="M456.26 33.2L456.26 292.7C456.26 325.29 447.88 357.63 432.04 386.24C412.49 421.55 382.83 449.7 346.28 467.65L256 512L165.72 467.65C132.86 451.51 105.23 426.77 85.81 396.11C66.14 365.05 55.74 329.29 55.74 292.7L55.74 33.2L188.61 6.66C216.87 1.02 245.8 -1.05 274.58 0.5C290.92 1.39 307.34 3.46 323.39 6.66L456.26 33.2ZM441.25 45.5L320.46 21.38C305.1 18.31 289.39 16.33 273.77 15.48C246.24 14 218.58 15.98 191.55 21.38L70.75 45.5L70.75 292.7C70.75 326.44 80.34 359.43 98.49 388.08C116.43 416.41 141.96 439.26 172.34 454.18L256 495.28L339.67 454.18C373.45 437.59 400.86 411.58 418.92 378.97C433.53 352.58 441.25 322.75 441.25 292.7L441.25 45.5Z" />
				<path id="Layer" class="shp0" d="M416.25 205.3L431.25 205.3L431.25 53.7L393.71 46.21L390.78 60.92L416.25 66.01L416.25 205.3Z" />
				<path id="Layer" class="shp0" d="M416.25 228.46L431.25 228.46L431.25 241.56L416.25 241.56L416.25 228.46Z" />
				<path id="Layer" class="shp0" d="M400.5 360.23L413.97 366.85C416.93 360.82 419.56 354.54 421.79 348.19L407.62 343.23C405.6 349.02 403.2 354.74 400.5 360.23Z" />
				<path id="Layer" class="shp0" d="M116.94 396.88C119.92 400.68 123.11 404.4 126.42 407.93L137.38 397.7C134.37 394.47 131.46 391.07 128.74 387.61L116.94 396.88Z" />
				<path id="Layer" class="shp0" d="M96.14 303.51L81.17 304.58C83.05 331.1 91.39 357.2 105.27 380.04L118.09 372.25C105.44 351.44 97.85 327.67 96.14 303.51Z" />
				<path id="Layer" class="shp0" d="M80.75 53.7L80.75 173.71L95.75 173.71L95.75 66.01L150.47 55.08L147.53 40.37L80.75 53.7Z" />
				<path id="Layer" class="shp0" d="M190.74 31.72L193.68 46.44L176.72 49.82L173.78 35.11L190.74 31.72Z" />
				<path id="Layer" fill-rule="evenodd" class="shp0" d="M290.84 393.21C290.84 412.42 275.21 428.05 256 428.05C236.79 428.05 221.16 412.42 221.16 393.21C221.16 374 236.79 358.37 256 358.37C275.21 358.37 290.84 374 290.84 393.21ZM275.84 393.21C275.84 382.27 266.94 373.37 256 373.37C245.06 373.37 236.16 382.27 236.16 393.21C236.16 404.15 245.06 413.05 256 413.05C266.94 413.05 275.84 404.15 275.84 393.21Z" />
				<path id="Layer" class="shp0" d="M302.38 308.25C298.17 304.85 293.58 301.91 288.74 299.52L282.08 312.96C285.94 314.88 289.6 317.22 292.96 319.93L302.38 308.25Z" />
				<path id="Layer" class="shp0" d="M311.29 386.44L325.35 391.68C328.43 383.43 330 374.74 330 365.87C330 349.62 324.81 334.18 314.99 321.23L303.03 330.3C310.86 340.62 314.99 352.92 314.99 365.87C314.99 372.94 313.75 379.86 311.29 386.44Z" />
				<path id="Layer" class="shp0" d="M191.63 402.34C194.25 406.94 197.36 411.26 200.9 415.21L212.07 405.19C209.25 402.05 206.76 398.59 204.68 394.93L191.63 402.34Z" />
				<path id="Layer" class="shp0" d="M197.01 365.87C197.01 361.06 197.59 356.28 198.74 351.65L184.18 348.04C182.74 353.85 182 359.84 182 365.87C182 370.25 182.39 374.63 183.16 378.91L197.93 376.28C197.32 372.86 197.01 369.36 197.01 365.87Z" />
				<path id="Layer" fill-rule="evenodd" class="shp0" d="M292.56 25.53L292.56 273.86C329.11 288.44 355 324.18 355 365.87C355 420.46 310.59 464.87 256 464.87C201.41 464.87 157 420.46 157 365.87C157 324.18 182.9 288.44 219.44 273.86L219.44 231.95L246.11 231.95L246.11 205.93L219.44 189.65L219.44 165.2L248.5 152.19L248.5 143.31L219.44 143.31L219.44 79.54L292.56 25.53L292.56 25.53ZM234.45 246.95L234.45 269.22C234.87 269.13 235.29 269.05 235.7 268.96C235.91 268.92 236.12 268.87 236.32 268.83C236.91 268.71 237.49 268.6 238.07 268.49C238.35 268.44 238.63 268.39 238.91 268.34C239.45 268.25 239.99 268.16 240.53 268.08C240.86 268.02 241.19 267.97 241.52 267.93C242.03 267.85 242.53 267.78 243.03 267.71C243.41 267.67 243.79 267.62 244.17 267.57C244.64 267.52 245.11 267.46 245.57 267.41C246 267.37 246.42 267.33 246.85 267.29C247.28 267.25 247.71 267.21 248.15 267.18C248.62 267.14 249.1 267.11 249.58 267.08C249.96 267.05 250.35 267.03 250.74 267.01C251.3 266.98 251.86 266.96 252.41 266.94C252.73 266.93 253.05 266.91 253.36 266.9C254.24 266.88 255.12 266.87 256 266.87C256.89 266.87 257.77 266.88 258.64 266.9C258.96 266.91 259.27 266.93 259.59 266.94C260.15 266.96 260.71 266.98 261.26 267.01C261.65 267.03 262.04 267.06 262.43 267.08C262.91 267.11 263.39 267.14 263.86 267.18C264.3 267.21 264.73 267.25 265.16 267.29C265.58 267.33 266.01 267.37 266.43 267.41C266.9 267.46 267.37 267.52 267.84 267.57C268.22 267.62 268.6 267.67 268.98 267.72C269.48 267.78 269.98 267.85 270.48 267.93C270.81 267.98 271.15 268.03 271.48 268.08C272.02 268.16 272.56 268.25 273.09 268.35C273.37 268.4 273.66 268.44 273.94 268.5C274.52 268.6 275.1 268.71 275.68 268.83C275.89 268.87 276.1 268.92 276.31 268.96C276.72 269.05 277.14 269.13 277.55 269.22L277.55 55.27L234.45 87.11L234.45 128.3L263.5 128.3L263.5 161.91L234.45 174.92L234.45 181.23L261.12 197.51L261.12 246.95L234.45 246.95ZM281.11 285.71C281.01 285.68 280.9 285.64 280.79 285.61C279.6 285.24 278.39 284.9 277.17 284.58C277.07 284.55 276.98 284.53 276.88 284.5C274.3 283.84 271.67 283.3 269 282.88C268.73 282.84 268.45 282.81 268.18 282.77C267.17 282.62 266.16 282.49 265.15 282.38C264.75 282.34 264.35 282.3 263.95 282.26C263.01 282.17 262.06 282.1 261.11 282.04C260.72 282.02 260.34 281.99 259.95 281.97C258.64 281.91 257.32 281.87 256 281.87C254.68 281.87 253.36 281.91 252.06 281.97C251.67 281.99 251.28 282.02 250.89 282.04C249.94 282.1 249 282.17 248.06 282.26C247.66 282.3 247.26 282.34 246.86 282.38C245.84 282.49 244.83 282.62 243.82 282.77C243.55 282.81 243.28 282.84 243 282.88C240.33 283.3 237.71 283.84 235.13 284.5C235.03 284.53 234.93 284.55 234.83 284.58C233.61 284.9 232.4 285.24 231.21 285.61C231.1 285.64 231 285.68 230.89 285.71C196.8 296.41 172 328.3 172 365.87C172 412.19 209.68 449.87 256 449.87C302.32 449.87 340 412.19 340 365.87C340 328.3 315.2 296.41 281.11 285.71Z" />
			</g>
		</g>
	</g>
	<g id="Layer">
	</g>
	<g id="Layer">
	</g>
	<g id="Layer">
	</g>
	<g id="Layer">
	</g>
	<g id="Layer">
	</g>
	<g id="Layer">
	</g>
	<g id="Layer">
	</g>
	<g id="Layer">
	</g>
	<g id="Layer">
	</g>
	<g id="Layer">
	</g>
	<g id="Layer">
	</g>
	<g id="Layer">
	</g>
	<g id="Layer">
	</g>
	<g id="Layer">
	</g>
	<g id="Layer">
	</g>
</svg>