<svg xmlns="http://www.w3.org/2000/svg" viewBox="0 0 513 513" width="513" height="513">
	<style>
		tspan { white-space:pre }
		.shp0 { fill: #4056fe } 
	</style>
	<g id="Layer">
		<g id="Layer">
			<g id="Layer">
				<path id="Layer" fill-rule="evenodd" class="shp0" d="M133.35 256.26C133.35 188.48 188.48 133.35 256.26 133.35C324.03 133.35 379.17 188.48 379.17 256.26C379.17 324.03 324.03 379.17 256.26 379.17C188.48 379.17 133.35 324.03 133.35 256.26ZM364.17 256.26C364.17 196.75 315.76 148.35 256.26 148.35C196.76 148.35 148.35 196.75 148.35 256.26C148.35 315.76 196.76 364.17 256.26 364.17C315.76 364.17 364.17 315.76 364.17 256.26Z" />
				<path id="Layer" class="shp0" d="M485.81 370.2L512.52 253.76L455.75 227.9C455.26 224.46 454.68 221.01 454 217.59L499.13 174.51L435.69 73.3L377.25 95.15C374.48 93.06 371.64 91.04 368.73 89.08L370.2 26.71L253.76 0L227.88 56.77C224.43 57.26 220.99 57.84 217.59 58.52L174.51 13.38L73.3 76.82L95.15 135.26C93.06 138.03 91.04 140.88 89.08 143.78L26.71 142.32L0 258.76L56.77 284.62C57.26 288.06 57.84 291.51 58.52 294.93L13.38 338.01L40.02 380.5L52.73 372.53L32.59 340.41L74.94 299.99C72.09 287.05 71.79 284.28 70.62 274.44L17.36 250.18L38.59 157.6L97.09 158.98C104.31 147.75 106.04 145.59 112.13 137.86L91.64 83.03L172.11 32.59L212.53 74.94C225.17 72.16 227.71 71.85 238.06 70.6L262.33 17.36L354.92 38.59L353.54 97.09C364.76 104.31 366.92 106.05 374.65 112.13L429.48 91.64L479.92 172.11L437.57 212.53C440.43 225.47 440.73 228.24 441.9 238.08L495.16 262.34L473.93 354.92L415.43 353.54C408.21 364.77 406.47 366.93 400.38 374.65L420.88 429.48L340.41 479.93L299.99 437.58C287.05 440.43 284.28 440.73 274.44 441.9L250.18 495.16L157.6 473.93L158.95 415.42C148 408.36 146.19 406.94 137.86 400.39L83.03 420.88L60.9 385.58L48.19 393.54L76.82 439.22L135.26 417.37C138.03 419.45 140.87 421.47 143.76 423.43L142.32 485.81L258.76 512.52L284.62 455.75C288.06 455.26 291.51 454.68 294.93 454L338.01 499.13L439.22 435.69L417.37 377.25C419.45 374.48 421.48 371.64 423.44 368.73L485.81 370.2Z" />
				<path id="Layer" class="shp0" d="M291.14 104.18C207.29 84.94 123.41 137.51 104.18 221.37C84.94 305.23 137.51 389.1 221.37 408.34C305.02 427.53 389.06 375.2 408.34 291.14C419.28 243.44 407.63 194.43 376.37 156.68L364.82 166.25C393.08 200.37 403.61 244.67 393.72 287.79C378.75 353.02 320.53 397.31 256.27 397.3C165.71 397.3 98.58 312.84 118.8 224.72C136.18 148.93 211.99 101.41 287.79 118.8C313.33 124.66 336.64 137.43 355.19 155.73L365.72 145.05C345.19 124.8 319.4 110.66 291.14 104.18L291.14 104.18Z" />
				<path id="Layer" fill-rule="evenodd" class="shp0" d="M248.83 177.18L301.76 177.18L275.3 230.31L315.49 230.31L236.3 335.33L205.99 335.33L235.86 275.79L199.99 275.79L248.83 177.19L248.83 177.18ZM285.39 245.31L285.39 245.31L285.39 245.31L285.39 245.31ZM285.39 245.31L251.08 245.31L277.53 192.19L258.14 192.19L224.16 260.79L260.17 260.79L233.23 314.49L285.39 245.31Z" />
			</g>
			<g id="Layer">
				<g id="Layer">
					<path id="Layer" class="shp0" d="M292.65 74.73L296.01 60.1L310.64 63.46L307.28 78.09L292.65 74.73Z" />
				</g>
				<g id="Layer">
					<path id="Layer" class="shp0" d="M202.94 453.72L206.3 439.1L220.92 442.46L217.56 457.08L202.94 453.72Z" />
				</g>
			</g>
			<g id="Layer">
				<g id="Layer">
					<path id="Layer" class="shp0" d="M437.21 309.13L440.57 294.51L455.2 297.87L451.84 312.49L437.21 309.13Z" />
				</g>
				<g id="Layer">
					<path id="Layer" class="shp0" d="M58.22 219.41L61.58 204.78L76.2 208.14L72.84 222.77L58.22 219.41Z" />
				</g>
			</g>
			<g id="Layer">
				<g id="Layer">
					<path id="Layer" class="shp0" d="M411.76 154.05L424.46 146.08L432.43 158.79L419.72 166.75L411.76 154.05Z" />
				</g>
				<g id="Layer">
					<path id="Layer" class="shp0" d="M80.49 358.31L93.2 350.35L101.16 363.05L88.46 371.02L80.49 358.31Z" />
				</g>
			</g>
			<g id="Layer">
				<g id="Layer">
					<path id="Layer" class="shp0" d="M348.16 421.8L360.87 413.83L368.83 426.54L356.13 434.5L348.16 421.8Z" />
				</g>
				<g id="Layer">
					<path id="Layer" class="shp0" d="M143.9 90.52L156.61 82.55L164.57 95.26L151.87 103.22L143.9 90.52Z" />
				</g>
			</g>
			<g id="Layer">
				<path id="Layer" class="shp0" d="M168.83 248.76L183.83 248.76L183.83 263.76L168.83 263.76L168.83 248.76Z" />
			</g>
			<g id="Layer">
				<path id="Layer" class="shp0" d="M328.83 248.76L343.83 248.76L343.83 263.76L328.83 263.76L328.83 248.76Z" />
			</g>
		</g>
	</g>
</svg>