<svg xmlns="http://www.w3.org/2000/svg" viewBox="0 0 513 513" width="513" height="513">
	<style>
		tspan { white-space:pre }
		.shp0 { fill: #4056fe } 
	</style>
	<g id="Layer">
		<g id="Layer">
			<g id="Layer">
				<path id="Layer" class="shp0" d="M105.44 43.59L105.44 58.37L114.08 58.37L114.08 68.51L128.85 68.51L128.85 43.59L105.44 43.59Z" />
			</g>
		</g>
		<g id="Layer">
			<g id="Layer">
				<path id="Layer" class="shp0" d="M86.6 113.55L100.35 113.55L100.35 128.33L86.6 128.33L86.6 113.55Z" />
			</g>
		</g>
		<g id="Layer">
			<g id="Layer">
				<path id="Layer" class="shp0" d="M58.89 113.56L58.89 83.78L44.12 83.78L44.12 128.33L73.86 128.33L73.86 113.56L58.89 113.56Z" />
			</g>
		</g>
		<g id="Layer">
			<g id="Layer">
				<path id="Layer" class="shp0" d="M101.45 435.11L88.24 441.72L93.67 452.58L74.37 452.58L74.37 467.35L117.57 467.35L101.45 435.11Z" />
			</g>
		</g>
		<g id="Layer">
			<g id="Layer">
				<path id="Layer" class="shp0" d="M500.15 369.59L489.7 359.14L434.3 414.54L378.9 359.14L368.46 369.59L423.86 424.99L368.46 480.38L378.9 490.83L434.3 435.43L489.7 490.83L500.15 480.38L444.75 424.99L500.15 369.59Z" />
			</g>
		</g>
		<g id="Layer">
			<g id="Layer">
				<path id="Layer" fill-rule="evenodd" class="shp0" d="M502.31 85.96C502.31 123.46 471.8 153.97 434.3 153.97C396.8 153.97 366.3 123.46 366.3 85.96C366.3 85.53 366.32 85.1 366.33 84.67C333.46 63.38 295.45 52.16 256 52.16C242.54 52.16 229.16 53.48 216.07 56.08L253.31 69.02L248.46 82.98L186.89 61.57L208.3 0L222.25 4.85L209.19 42.43C224.49 39.08 240.2 37.39 256 37.39C296.01 37.39 334.63 48.15 368.54 68.63C376.22 39.5 402.79 17.95 434.3 17.95C471.8 17.95 502.31 48.46 502.31 85.96ZM487.54 85.96C487.54 56.61 463.66 32.73 434.3 32.73C404.95 32.73 381.07 56.61 381.07 85.96C381.07 115.32 404.95 139.2 434.3 139.2C463.66 139.2 487.54 115.32 487.54 85.96Z" />
			</g>
		</g>
		<g id="Layer">
			<g id="Layer">
				<path id="Layer" class="shp0" d="M438.54 43.8L437.07 58.5C442.81 59.08 448.14 61.41 452.5 65.24L462.26 54.15C455.57 48.26 447.37 44.69 438.54 43.8Z" />
			</g>
		</g>
		<g id="Layer">
			<g id="Layer">
				<path id="Layer" class="shp0" d="M442.01 112.46C439.52 113.19 436.92 113.56 434.3 113.56C420 113.56 407.91 102.39 406.79 88.14L392.07 89.3C393.78 111.18 412.33 128.33 434.3 128.33C438.32 128.33 442.3 127.76 446.14 126.64L442.01 112.46Z" />
			</g>
		</g>
		<g id="Layer">
			<g id="Layer">
				<path id="Layer" fill-rule="evenodd" class="shp0" d="M154.5 153.97L79.8 153.97C62.05 184.73 52.68 219.7 52.68 255.47C52.68 263.04 53.11 270.64 53.94 278.14L80.07 244.87L91.69 253.99L51.43 305.26L0.15 265L9.28 253.38L38.94 276.68C38.26 269.64 37.91 262.54 37.91 255.47C37.91 219.94 46.53 185.14 62.93 153.97L18.48 153.97L18.48 17.95L154.5 17.95L154.5 153.97ZM49.08 284.34L48.76 284.38L48.93 284.52L49.08 284.34ZM139.72 139.2L139.72 32.73L33.25 32.73L33.25 139.2L139.72 139.2Z" />
			</g>
		</g>
		<g id="Layer">
			<g id="Layer">
				<path id="Layer" class="shp0" d="M511.85 230.89L460.58 190.63L420.31 241.9L431.93 251.02L456.23 220.08C458.27 231.72 459.32 243.58 459.32 255.48C459.32 285.91 452.76 315.18 439.82 342.47L453.17 348.8C467.05 319.52 474.09 288.12 474.09 255.48C474.09 242.69 472.95 229.92 470.75 217.41L502.72 242.51L511.85 230.89Z" />
			</g>
		</g>
		<g id="Layer">
			<g id="Layer">
				<path id="Layer" fill-rule="evenodd" class="shp0" d="M307.89 461.15L267.09 512L255.57 502.76L280.05 472.25C272.08 473.12 264.03 473.56 256 473.56C209.72 473.56 165.74 459.29 128.97 432.81L159.06 493L13.91 493L86.49 347.85L112.11 399.1C150.53 437.6 201.56 458.79 256 458.79C263.9 458.79 271.82 458.33 279.63 457.43L247.8 431.88L257.04 420.36L307.89 461.15ZM86.49 380.88L37.82 478.22L135.16 478.22L86.49 380.88Z" />
			</g>
		</g>
		<g id="Layer">
			<g id="Layer">
				<path id="Layer" fill-rule="evenodd" class="shp0" d="M325.23 254.91C325.23 293.18 294.1 324.31 255.83 324.31C217.56 324.31 186.42 293.18 186.42 254.91C186.42 216.64 217.56 185.5 255.83 185.5C294.1 185.5 325.23 216.64 325.23 254.91ZM310.46 254.91C310.46 224.79 285.95 200.28 255.83 200.28C225.7 200.28 201.19 224.79 201.19 254.91C201.19 285.03 225.7 309.54 255.83 309.54C285.95 309.54 310.46 285.03 310.46 254.91Z" />
			</g>
		</g>
	</g>
</svg>