<svg xmlns="http://www.w3.org/2000/svg" viewBox="0 0 512 500" width="512" height="500">
	<style>
		tspan { white-space:pre }
		.shp0 { fill: #000000 } 
	</style>
	<g id="Layer">
		<path id="Layer" fill-rule="evenodd" class="shp0" d="M318.84 125.82L277.76 183.22C280.92 187.4 282.79 192.6 282.79 198.23C282.79 212.02 271.57 223.23 257.79 223.23C244 223.23 232.79 212.02 232.79 198.23C232.79 196.43 232.98 194.67 233.35 192.98L205.97 177.44C201.5 181.6 195.52 184.15 188.95 184.15C182.38 184.15 176.4 181.6 171.94 177.44L144.56 192.97C144.92 194.67 145.12 196.43 145.12 198.23C145.12 212.02 133.9 223.23 120.12 223.23C106.33 223.23 95.12 212.02 95.12 198.23C95.12 184.45 106.33 173.23 120.12 173.23C126.69 173.23 132.67 175.78 137.13 179.94L164.51 164.4C164.15 162.71 163.95 160.95 163.95 159.15C163.95 145.36 175.17 134.15 188.95 134.15C202.74 134.15 213.95 145.36 213.95 159.15C213.95 160.95 213.76 162.71 213.39 164.4L240.77 179.94C245.24 175.78 251.22 173.23 257.79 173.23C260.51 173.23 263.12 173.67 265.57 174.48L306.65 117.08C303.5 112.89 301.62 107.69 301.62 102.06C301.62 88.28 312.84 77.06 326.62 77.06C340.41 77.06 351.62 88.28 351.62 102.06C351.62 115.85 340.41 127.06 326.62 127.06C323.9 127.06 321.29 126.62 318.84 125.82ZM316.62 102.06C316.62 107.58 321.11 112.06 326.62 112.06C332.14 112.06 336.62 107.58 336.62 102.06C336.62 96.55 332.14 92.06 326.62 92.06C321.11 92.06 316.62 96.55 316.62 102.06ZM130.12 198.23C130.12 192.71 125.63 188.23 120.11 188.23C114.6 188.23 110.11 192.71 110.11 198.23C110.11 203.75 114.6 208.23 120.11 208.23C125.63 208.23 130.12 203.75 130.12 198.23ZM198.95 159.14C198.95 153.63 194.47 149.14 188.95 149.14C183.44 149.14 178.95 153.63 178.95 159.14C178.95 164.66 183.44 169.15 188.95 169.15C194.47 169.15 198.95 164.66 198.95 159.14ZM267.79 198.23C267.79 192.71 263.3 188.23 257.79 188.23C252.27 188.23 247.79 192.71 247.79 198.23C247.79 203.75 252.27 208.23 257.79 208.23C263.3 208.23 267.79 203.75 267.79 198.23Z" />
		<path id="Layer" fill-rule="evenodd" class="shp0" d="M426.3 378.47C426.3 382.61 422.94 385.97 418.8 385.97L373.81 385.97L373.81 402.47C373.81 411.88 366.16 419.52 356.76 419.52L281.68 419.52L317.02 488.52C318.91 492.21 317.45 496.73 313.77 498.62C312.67 499.18 311.51 499.44 310.35 499.44C307.63 499.44 305 497.95 303.67 495.36L264.83 419.52L181.91 419.52L143.07 495.36C141.74 497.95 139.11 499.44 136.38 499.44C135.23 499.44 134.06 499.18 132.97 498.62C129.28 496.73 127.83 492.21 129.72 488.52L165.06 419.52L89.98 419.52C80.58 419.52 72.93 411.87 72.93 402.47L72.93 385.96L21.21 385.96C9.52 385.96 0 376.45 0 364.75L0 55.33C0 43.63 9.52 34.12 21.21 34.12L56.57 34.12C60.71 34.12 64.07 37.47 64.07 41.62C64.07 45.76 60.71 49.12 56.57 49.12L21.21 49.12C17.79 49.12 15 51.9 15 55.33L15 364.75C15 368.18 17.79 370.96 21.21 370.96L418.8 370.96C422.94 370.96 426.3 374.32 426.3 378.47ZM358.81 385.97L87.93 385.97L87.93 402.47C87.93 403.6 88.85 404.52 89.98 404.52L356.76 404.52C357.89 404.52 358.81 403.6 358.81 402.47L358.81 385.97Z" />
		<path id="Layer" fill-rule="evenodd" class="shp0" d="M79.07 41.62C79.07 37.47 82.43 34.12 86.57 34.12L181.74 34.12L181.74 19.37C181.74 9 190.19 0.56 200.56 0.56L246.18 0.56C256.55 0.56 265 9 265 19.37L265 34.12L425.52 34.12C437.22 34.12 446.74 43.63 446.74 55.33L446.74 126.64C446.74 130.78 443.38 134.14 439.24 134.14C435.1 134.14 431.74 130.78 431.74 126.64L431.74 55.33C431.74 51.9 428.95 49.12 425.52 49.12L86.57 49.12C82.43 49.12 79.07 45.76 79.07 41.62ZM196.74 19.37L196.74 34.12L250 34.12L250 19.37C250 17.27 248.28 15.56 246.18 15.56L200.56 15.56C198.45 15.56 196.74 17.27 196.74 19.37L196.74 19.37Z" />
		<path id="Layer" fill-rule="evenodd" class="shp0" d="M135.33 261.58C139.47 261.58 142.83 264.93 142.83 269.08L142.83 335.35C142.83 339.49 139.47 342.85 135.33 342.85L104.9 342.85C100.76 342.85 97.4 339.49 97.4 335.35L97.4 269.08C97.4 264.93 100.76 261.58 104.9 261.58L135.33 261.58ZM127.83 327.85L127.83 276.58L112.4 276.58L112.4 327.85L127.83 327.85Z" />
		<path id="Layer" fill-rule="evenodd" class="shp0" d="M204.16 223.25C208.31 223.25 211.66 226.6 211.66 230.75L211.66 335.35C211.66 339.49 208.31 342.85 204.16 342.85L173.74 342.85C169.59 342.85 166.24 339.49 166.24 335.35L166.24 230.75C166.24 226.6 169.59 223.25 173.74 223.25L204.16 223.25ZM196.66 238.25L181.24 238.25L181.24 327.85L196.66 327.85L196.66 238.25Z" />
		<path id="Layer" fill-rule="evenodd" class="shp0" d="M273 261.58C277.14 261.58 280.5 264.93 280.5 269.08L280.5 335.35C280.5 339.49 277.14 342.85 273 342.85L242.57 342.85C238.43 342.85 235.07 339.49 235.07 335.35L235.07 269.08C235.07 264.93 238.43 261.58 242.57 261.58L273 261.58ZM265.5 276.58L250.07 276.58L250.07 327.85L265.5 327.85L265.5 276.58Z" />
		<path id="Layer" class="shp0" d="M311.41 305.83C307.27 305.83 303.91 309.19 303.91 313.33L303.91 335.35C303.91 339.49 307.27 342.85 311.41 342.85L341.84 342.85C345.98 342.85 349.34 339.49 349.34 335.35C349.34 331.21 345.98 327.85 341.84 327.85L318.91 327.85L318.91 313.33C318.91 309.19 315.55 305.83 311.41 305.83Z" />
		<path id="Layer" fill-rule="evenodd" class="shp0" d="M512 392.26C512 402.42 506.54 411.89 497.74 416.97C493.26 419.55 488.36 420.78 483.53 420.78C473.67 420.78 464.07 415.67 458.79 406.53L415.78 332C408.54 333.69 401.14 334.55 393.7 334.55C385.18 334.55 376.62 333.43 368.17 331.17C342.88 324.39 321.74 308.17 308.65 285.5C281.62 238.68 297.72 178.61 344.53 151.59C391.34 124.56 451.41 140.66 478.43 187.47C491.53 210.15 495 236.56 488.23 261.85C483.99 277.68 476.05 291.87 465.15 303.49L508.18 378.02C510.68 382.36 512 387.28 512 392.26ZM435.05 308.38C454.26 297.3 468 279.39 473.74 257.97C479.48 236.55 476.53 214.17 465.44 194.97C450.08 168.37 422.11 153.47 393.4 153.47C379.32 153.47 365.07 157.05 352.03 164.58C312.38 187.47 298.75 238.35 321.64 278C332.72 297.2 350.63 310.94 372.05 316.68C393.47 322.42 415.85 319.47 435.05 308.38ZM497 392.26C497 389.91 496.37 387.58 495.18 385.52L453.78 313.81C450.24 316.56 446.5 319.1 442.55 321.38C438.61 323.65 434.55 325.63 430.4 327.33L471.79 399.03C475.51 405.48 483.79 407.7 490.24 403.97C494.41 401.57 497 397.08 497 392.26Z" />
		<path id="Layer" class="shp0" d="M461.54 257.61C466.84 240.55 465.58 222.29 457.99 206.19C456.22 202.45 451.76 200.84 448.01 202.61C444.26 204.37 442.66 208.84 444.42 212.59C450.4 225.29 451.4 239.7 447.22 253.16C443.01 266.7 433.93 278.06 421.64 285.16C408.64 292.67 393.49 294.66 378.99 290.77C364.49 286.89 352.37 277.59 344.86 264.58C329.37 237.74 338.6 203.3 365.44 187.8C385.06 176.47 409.42 177.99 427.49 191.66C430.79 194.16 435.49 193.51 437.99 190.2C440.49 186.9 439.84 182.2 436.54 179.7C413.65 162.38 382.79 160.46 357.94 174.81C341.46 184.32 329.68 199.68 324.76 218.05C319.83 236.42 322.36 255.61 331.87 272.08C341.38 288.56 356.74 300.34 375.11 305.26C381.24 306.91 387.47 307.72 393.66 307.72C405.99 307.72 418.17 304.48 429.14 298.15C444.71 289.16 456.22 274.77 461.54 257.61Z" />
	</g>
</svg>