<svg xmlns="http://www.w3.org/2000/svg" viewBox="0 0 513 460" width="513" height="460">
	<style>
		tspan { white-space:pre }
		.shp0 { fill: #000000 } 
	</style>
	<g id="Layer">
		<g id="Layer">
			<path id="Layer" class="shp0" d="M276.37 25.37L276.37 40.14L314.07 40.14L314.07 64.73L328.85 64.73L328.85 25.37L276.37 25.37Z" />
		</g>
	</g>
	<g id="Layer">
		<g id="Layer">
			<path id="Layer" class="shp0" d="M314.07 82.74L328.85 82.74L328.85 96.25L314.07 96.25L314.07 82.74Z" />
		</g>
	</g>
	<g id="Layer">
		<g id="Layer">
			<path id="Layer" class="shp0" d="M314.07 349.89L314.07 378.13L257.61 378.13L257.61 392.91L328.85 392.91L328.85 349.89L314.07 349.89Z" />
		</g>
	</g>
	<g id="Layer">
		<g id="Layer">
			<path id="Layer" class="shp0" d="M218.59 378.13L236.6 378.13L236.6 392.9L218.59 392.9L218.59 378.13Z" />
		</g>
	</g>
	<g id="Layer">
		<g id="Layer">
			<path id="Layer" class="shp0" d="M47.2 132.63L310.39 132.63L310.39 147.41L47.2 147.41L47.2 132.63Z" />
		</g>
	</g>
	<g id="Layer">
		<g id="Layer">
			<path id="Layer" class="shp0" d="M47.2 178.72L310.39 178.72L310.39 193.49L47.2 193.49L47.2 178.72Z" />
		</g>
	</g>
	<g id="Layer">
		<g id="Layer">
			<path id="Layer" fill-rule="evenodd" class="shp0" d="M512 137.41L408.92 240.49L398.47 230.05L473.99 154.53L465.51 146.05L396.81 214.75L396.81 460.09L42.51 460.09L42.51 418.36L0 418.36L0 97.66L97.74 -0.09L354.29 -0.09L354.29 41.64L396.81 41.64L396.81 116.95L431.2 82.56C437.56 76.19 446.02 72.69 455.02 72.69C464.02 72.69 472.48 76.19 478.85 82.56L480.1 83.81C493.24 96.94 493.24 118.32 480.1 131.46L475.96 135.6L484.43 144.08L501.55 126.96L512 137.41ZM354.29 159.46L382.03 131.72L382.03 56.42L354.29 56.42L354.29 159.46ZM14.77 403.58L339.52 403.58L339.52 272.04L306.52 305.04C300.88 310.68 280.43 326.76 259.94 340.13C248.35 347.7 238.49 353.28 230.64 356.71C225.98 358.75 220.11 360.93 214.77 360.93C213.94 360.93 213.14 360.87 212.34 360.76L205.66 367.44L195.21 357L201.9 350.32C201.06 344.37 203.59 337.4 205.95 332.01C209.38 324.17 214.96 314.31 222.52 302.72C226.32 296.91 230.32 291.1 234.25 285.63L47.2 285.63L47.2 270.86L245.28 270.86C250.66 263.94 255.14 258.61 257.61 256.14L274.19 239.56L47.2 239.56L47.2 224.79L288.96 224.79L339.52 174.23L339.52 14.69L108.19 14.69L108.19 108.1L14.77 108.1L14.77 403.58ZM25.22 93.33L93.42 93.33L93.42 25.13L25.22 93.33ZM382.03 445.31L382.03 229.53L354.3 257.26L354.3 418.36L57.28 418.36L57.28 445.31L382.03 445.31ZM268.06 266.59C263.48 271.17 249.58 288.79 237.34 307.09C222.71 328.97 217.66 341.01 216.66 346C221.65 344.99 233.68 339.95 255.56 325.32C273.86 313.08 291.49 299.18 296.07 294.6L320.1 270.56L292.09 242.55L268.06 266.59ZM455.06 135.6L427.05 107.59L302.54 232.11L330.55 260.12L455.06 135.6ZM469.65 94.25L468.4 93C464.83 89.43 460.08 87.46 455.02 87.46C449.97 87.46 445.22 89.43 441.64 93L437.5 97.15L465.51 125.16L469.65 121.01C477.03 113.64 477.03 101.63 469.65 94.25Z" />
		</g>
	</g>
	<g id="Layer">
		<g id="Layer">
			<path id="Layer" class="shp0" d="M179.49 362.33C176.98 363.94 173.54 364.41 170.29 363.59C164.8 362.19 161.14 356.91 156.9 350.79C155.1 348.19 153.24 345.5 151.13 343.03C140.12 330.11 123.93 327.91 108.87 337.29C106.04 339.05 103.31 341.08 100.68 343.04C94.06 347.97 87.81 352.62 81.02 352.34C74.21 352.06 67.82 347.99 65.46 342.45C63.25 337.23 64.43 331.36 69.29 323.42L56.68 315.71C53.96 320.16 45.69 333.68 51.86 348.22C56.44 358.99 67.9 366.58 80.4 367.1C92.44 367.62 101.5 360.85 109.51 354.89C112.01 353.03 114.37 351.27 116.68 349.83C122.89 345.96 131.96 343.3 139.89 352.61C141.52 354.52 143.09 356.8 144.76 359.21C149.69 366.31 155.81 375.15 166.66 377.91C168.93 378.48 171.23 378.77 173.51 378.77C178.51 378.77 183.38 377.4 187.49 374.75L179.49 362.33Z" />
		</g>
	</g>
	<g id="Layer">
		<g id="Layer">
			<path id="Layer" class="shp0" d="M193.78 70.3C191.46 69.18 188.97 68.33 186.32 67.77C183.66 67.21 181.17 66.65 178.85 66.09C176.53 65.53 174.61 64.8 173.07 63.9C171.54 63 170.77 61.58 170.77 59.64C170.77 57.69 171.54 56.38 173.07 55.71C174.61 55.03 176.46 54.7 178.63 54.7C186.02 54.7 192.12 57.02 196.93 61.66L196.93 48.75C195.13 46.76 190.75 45.3 183.79 44.37L183.79 31.46C183.79 31.23 183.64 31.12 183.34 31.12L173.58 31.12C173.28 31.12 173.13 31.27 173.13 31.57L173.13 44.25C170.81 45.11 168.47 46.38 166.11 48.04C163.75 49.71 162.07 51.53 161.06 53.52C160.05 55.5 159.55 57.97 159.55 60.93C159.55 63.88 160.31 66.41 161.85 68.5C164.56 72.22 169 74.76 175.15 76.14L182.67 77.82C184.98 78.34 186.9 78.99 188.44 79.78C189.98 80.57 190.75 81.75 190.75 83.32C190.75 86.13 188.97 88.07 185.41 89.16C183.94 89.61 181.68 89.83 178.63 89.83C174.36 89.83 170.51 88.82 167.07 86.8C163.63 84.78 161.01 81.98 159.21 78.38L159.21 93.54C163.85 96.36 168.64 98.49 173.58 99.94L173.69 111.39C173.69 111.61 173.8 111.72 174.03 111.72L183.79 111.72C184.09 111.72 184.24 111.57 184.24 111.27L184.24 100.72C190.6 98.6 195.27 95.67 198.23 91.92C200.66 88.86 201.87 85.84 201.87 82.87C201.87 77.1 199.17 72.91 193.78 70.3Z" />
		</g>
	</g>
	<g id="Layer">
	</g>
	<g id="Layer">
	</g>
	<g id="Layer">
	</g>
	<g id="Layer">
	</g>
	<g id="Layer">
	</g>
	<g id="Layer">
	</g>
	<g id="Layer">
	</g>
	<g id="Layer">
	</g>
	<g id="Layer">
	</g>
	<g id="Layer">
	</g>
	<g id="Layer">
	</g>
	<g id="Layer">
	</g>
	<g id="Layer">
	</g>
	<g id="Layer">
	</g>
	<g id="Layer">
	</g>
</svg>