<svg xmlns="http://www.w3.org/2000/svg" viewBox="0 0 510 428" width="510" height="428">
	<style>
		tspan { white-space:pre }
		.shp0 { fill: #000000 } 
	</style>
	<g id="Layer">
		<path id="Layer" fill-rule="evenodd" class="shp0" d="M0 367.75L510 367.75L510 427.75L0 427.75L0 367.75ZM15 412.75L495 412.75L495 382.75L480 382.75L480 397.75L465 397.75L465 382.75L450 382.75L450 397.75L435 397.75L435 382.75L420 382.75L420 397.75L405 397.75L405 382.75L105 382.75L105 397.75L90 397.75L90 382.75L75 382.75L75 397.75L60 397.75L60 382.75L45 382.75L45 397.75L30 397.75L30 382.75L15 382.75L15 412.75Z" />
		<path id="Layer" class="shp0" d="M480 352.75L480 97.75L457.5 97.75L457.5 112.75L465 112.75L465 352.75L480 352.75Z" />
		<path id="Layer" class="shp0" d="M45 112.75L397.5 112.75L397.5 97.75L30 97.75L30 352.75L45 352.75L45 112.75Z" />
		<path id="Layer" fill-rule="evenodd" class="shp0" d="M468.97 35.49C466.47 31.87 465 27.48 465 22.75C465 10.34 475.09 0.25 487.5 0.25C499.91 0.25 510 10.34 510 22.75C510 35.16 499.91 45.25 487.5 45.25C485.28 45.25 483.13 44.92 481.11 44.32L327.48 244.93C329.09 248.02 330 251.53 330 255.25C330 267.66 319.91 277.75 307.5 277.75C295.09 277.75 285 267.66 285 255.25C285 254.43 285.05 253.62 285.13 252.82L240.27 234.25C236.26 237.97 230.89 240.25 225 240.25C220.71 240.25 216.7 239.04 213.29 236.95L156.97 280.4C157.31 281.96 157.5 283.58 157.5 285.25C157.5 297.66 147.41 307.75 135 307.75C122.59 307.75 112.5 297.66 112.5 285.25C112.5 272.84 122.59 262.75 135 262.75C140.27 262.75 145.13 264.58 148.97 267.63L203.81 225.32C202.96 222.95 202.5 220.4 202.5 217.75C202.5 205.34 212.59 195.25 225 195.25C237.41 195.25 247.5 205.34 247.5 217.75C247.5 218.82 247.42 219.88 247.27 220.92L291.66 239.29C295.73 235.25 301.33 232.75 307.5 232.75C310.69 232.75 313.73 233.42 316.48 234.63L468.97 35.49ZM142.5 285.25C142.5 281.11 139.14 277.75 135 277.75C130.86 277.75 127.5 281.11 127.5 285.25C127.5 289.39 130.86 292.75 135 292.75C139.14 292.75 142.5 289.39 142.5 285.25ZM232.5 217.75C232.5 213.61 229.14 210.25 225 210.25C220.86 210.25 217.5 213.61 217.5 217.75C217.5 221.89 220.86 225.25 225 225.25C229.14 225.25 232.5 221.89 232.5 217.75ZM315 255.25C315 251.11 311.64 247.75 307.5 247.75C303.36 247.75 300 251.11 300 255.25C300 259.39 303.36 262.75 307.5 262.75C311.64 262.75 315 259.39 315 255.25ZM480 22.75C480 26.89 483.36 30.25 487.5 30.25C491.64 30.25 495 26.89 495 22.75C495 18.61 491.64 15.25 487.5 15.25C483.36 15.25 480 18.61 480 22.75Z" />
		<path id="Layer" class="shp0" d="M375 142.75L375 127.75L60 127.75L60 352.75L450 352.75L450 127.75L427.5 127.75L427.5 142.75L435 142.75L435 337.75L75 337.75L75 142.75L375 142.75Z" />
		<path id="Layer" class="shp0" d="M322.5 0.25L450 0.25L450 15.25L322.5 15.25L322.5 0.25Z" />
		<path id="Layer" class="shp0" d="M322.5 30.25L367.5 30.25L367.5 45.25L322.5 45.25L322.5 30.25Z" />
		<path id="Layer" class="shp0" d="M382.5 30.25L420 30.25L420 45.25L382.5 45.25L382.5 30.25Z" />
		<path id="Layer" class="shp0" d="M322.5 60.25L337.5 60.25L337.5 75.25L322.5 75.25L322.5 60.25Z" />
		<path id="Layer" class="shp0" d="M292.5 0.25L307.5 0.25L307.5 15.25L292.5 15.25L292.5 0.25Z" />
	</g>
</svg>