<svg xmlns="http://www.w3.org/2000/svg" viewBox="0 0 514 514" width="514" height="514">
	<style>
		tspan { white-space:pre }
		.shp0 { fill: #000000 } 
	</style>
	<g id="Layer">
		<path id="Layer" fill-rule="evenodd" class="shp0" d="M84.51 347.76L84.51 160.26L429.51 160.26L429.51 347.76L84.51 347.76ZM257.01 325.26C296.3 325.26 328.26 293.3 328.26 254.01C328.26 214.73 296.3 182.76 257.01 182.76C217.73 182.76 185.76 214.73 185.76 254.01C185.76 293.3 217.73 325.26 257.01 325.26ZM99.51 332.76L221.9 332.76C213.43 328.97 205.66 323.86 198.89 317.68L198.89 317.76L144.51 317.76L144.51 310.26C144.51 297.86 134.42 287.76 122.01 287.76L114.51 287.76L114.51 220.26L122.01 220.26C134.42 220.26 144.51 210.17 144.51 197.76L144.51 190.26L198.98 190.26C205.73 184.12 213.47 179.04 221.9 175.26L99.51 175.26L99.51 332.76ZM414.51 175.26L292.13 175.26C300.56 179.04 308.3 184.12 315.05 190.26L369.51 190.26L369.51 197.76C369.51 210.17 379.61 220.26 392.01 220.26L399.51 220.26L399.51 287.76L392.01 287.76C379.61 287.76 369.51 297.86 369.51 310.26L369.51 317.76L315.14 317.76L315.14 317.68C308.37 323.86 300.6 328.97 292.13 332.76L414.51 332.76L414.51 175.26ZM343.26 254.02C343.26 272.1 337.66 288.89 328.12 302.77L355.27 302.77C358.26 288.09 369.84 276.51 384.51 273.52L384.51 234.51C369.84 231.52 358.26 219.94 355.27 205.26L328.12 205.26C337.66 219.14 343.26 235.93 343.26 254.02ZM170.76 254.01C170.76 235.93 176.37 219.14 185.91 205.26L158.76 205.26C155.77 219.93 144.18 231.52 129.51 234.51L129.51 273.52C144.18 276.51 155.77 288.09 158.76 302.76L185.91 302.76C176.37 288.88 170.76 272.09 170.76 254.01Z" />
		<path id="Layer" class="shp0" d="M215.76 254.1L200.76 254.13C200.78 260.73 201.93 267.2 204.18 273.35L218.27 268.19C216.62 263.69 215.77 258.95 215.76 254.1Z" />
		<path id="Layer" class="shp0" d="M249.88 294.65L247.31 309.43C250.49 309.98 253.76 310.26 257.01 310.26C260.31 310.26 263.61 309.98 266.82 309.41L264.22 294.64C259.53 295.46 254.58 295.47 249.88 294.65Z" />
		<path id="Layer" class="shp0" d="M285.18 302.71C290.86 299.42 295.88 295.2 300.11 290.16L288.63 280.51C285.52 284.22 281.83 287.32 277.66 289.74L285.18 302.71Z" />
		<path id="Layer" class="shp0" d="M225.35 227.57L213.84 217.96C209.61 223.02 206.33 228.71 204.1 234.88L218.21 239.99C219.84 235.46 222.25 231.29 225.35 227.57Z" />
		<path id="Layer" class="shp0" d="M228.94 302.77L236.44 289.77C232.26 287.37 228.56 284.27 225.45 280.57L213.98 290.24C218.22 295.27 223.25 299.49 228.94 302.77Z" />
		<path id="Layer" class="shp0" d="M284.99 205.2C279.28 201.92 273.09 199.69 266.6 198.58L264.06 213.36C268.81 214.18 273.34 215.81 277.52 218.21L284.99 205.2Z" />
		<path id="Layer" class="shp0" d="M295.79 268.12L309.89 273.25C312.13 267.09 313.26 260.62 313.26 254.01L313.26 253.76L298.26 254.01C298.26 258.87 297.43 263.61 295.79 268.12Z" />
		<path id="Layer" class="shp0" d="M249.72 213.4L247.09 198.64C240.62 199.79 234.45 202.06 228.75 205.37L236.3 218.33C240.47 215.91 244.98 214.25 249.72 213.4Z" />
		<path id="Layer" class="shp0" d="M309.81 234.57C307.54 228.41 304.23 222.74 299.98 217.7L288.52 227.39C291.65 231.08 294.07 235.24 295.74 239.75L309.81 234.57Z" />
		<path id="Layer" class="shp0" d="M384.51 190.26L399.51 190.26L399.51 205.26L384.51 205.26L384.51 190.26Z" />
		<path id="Layer" class="shp0" d="M384.51 302.76L399.51 302.76L399.51 317.76L384.51 317.76L384.51 302.76Z" />
		<path id="Layer" class="shp0" d="M114.51 190.26L129.51 190.26L129.51 205.26L114.51 205.26L114.51 190.26Z" />
		<path id="Layer" class="shp0" d="M114.51 302.76L129.51 302.76L129.51 317.76L114.51 317.76L114.51 302.76Z" />
		<path id="Layer" class="shp0" d="M246.67 235.47C244.26 238.27 242.44 241.74 241.46 245.82L236.4 245.82L236.4 251.19L240.63 251.19C240.63 251.94 240.55 252.7 240.55 253.45C240.55 253.91 240.55 254.36 240.55 254.74L236.4 254.74L236.4 260.1L241.31 260.1C241.99 264.11 243.5 267.36 245.54 269.93C249.77 275.52 256.57 278.54 263.98 278.54C268.81 278.54 273.19 277.1 275.76 275.67L273.95 267.28C272.36 268.11 268.81 269.25 265.34 269.25C261.56 269.25 258.01 268.11 255.59 265.39C254.46 264.11 253.63 262.37 253.1 260.1L272.06 260.1L272.06 254.74L252.04 254.74C252.04 254.28 252.04 253.98 252.04 253.53C252.04 252.77 252.04 251.94 252.12 251.19L272.06 251.19L272.06 245.82L253.25 245.82C253.78 243.86 254.61 242.12 255.67 240.91C258.01 238.04 261.33 236.83 264.96 236.83C268.28 236.83 271.38 237.81 273.35 238.64L275.46 230.03C272.74 228.82 268.74 227.76 264.13 227.76C257.03 227.76 250.98 230.63 246.67 235.47Z" />
		<path id="Layer" class="shp0" d="M69.01 264.01L69.01 249.01L23.03 249.01L30.25 238.17L17.77 229.85L0 256.51L17.77 283.17L30.25 274.85L23.03 264.01L69.01 264.01Z" />
		<path id="Layer" class="shp0" d="M495.25 229.85L482.77 238.17L490 249.01L444.01 249.01L444.01 264.01L490 264.01L482.77 274.85L495.25 283.17L513.03 256.51L495.25 229.85Z" />
		<path id="Layer" class="shp0" d="M118.63 383.79L86.11 416.31L83.56 403.54L68.85 406.48L75.13 437.9L106.55 444.18L109.49 429.47L96.72 426.92L129.23 394.4L118.63 383.79Z" />
		<path id="Layer" class="shp0" d="M394.4 129.23L426.92 96.72L429.47 109.49L444.18 106.55L437.9 75.13L406.48 68.85L403.54 83.56L416.31 86.11L383.79 118.63L394.4 129.23Z" />
		<path id="Layer" class="shp0" d="M264.01 490L264.01 444.01L249.01 444.01L249.01 490L238.17 482.77L229.85 495.25L256.51 513.03L283.17 495.25L274.85 482.77L264.01 490Z" />
		<path id="Layer" class="shp0" d="M249.01 23.03L249.01 69.01L264.01 69.01L264.01 23.03L274.85 30.25L283.17 17.77L256.51 0L229.85 17.77L238.17 30.25L249.01 23.03Z" />
		<path id="Layer" class="shp0" d="M426.92 416.31L394.4 383.79L383.79 394.4L416.31 426.92L403.54 429.47L406.48 444.18L437.9 437.9L444.18 406.48L429.47 403.54L426.92 416.31Z" />
		<path id="Layer" class="shp0" d="M86.11 96.72L118.63 129.23L129.23 118.63L96.72 86.11L109.49 83.56L106.55 68.85L75.13 75.13L68.85 106.55L83.56 109.49L86.11 96.72Z" />
	</g>
</svg>