<svg xmlns="http://www.w3.org/2000/svg" viewBox="0 0 511 512" width="511" height="512">
	<style>
		tspan { white-space:pre }
		.shp0 { fill: #4056fe } 
	</style>
	<g id="Layer">
		<path id="Layer" fill-rule="evenodd" class="shp0" d="M477.9 256.06C491.31 282.78 501.13 309.54 506.78 335.32C519.9 395.2 509.64 445.68 477.87 477.44C454.99 500.32 422.91 512 384.59 512C364.82 512 343.39 508.89 320.71 502.61C299.46 496.73 277.88 488.25 256.42 477.49C220.74 495.43 185.39 506.7 152.31 510.52C144.05 511.47 136.03 511.95 128.29 511.95C89.7 511.95 57.76 500.21 35 477.44C14.61 457.05 2.79 428.41 0.81 394.6C-0.97 364.19 5.2 329.28 18.63 293.33C7.6 284.61 0.5 271.12 0.5 256C0.5 240.88 7.6 227.39 18.63 218.67C5.2 182.72 -0.97 147.82 0.81 117.4C2.79 83.59 14.61 54.95 35 34.56C66.76 2.8 117.23 -7.47 177.11 5.66C202.89 11.31 229.65 21.12 256.37 34.53C277.85 23.76 299.44 15.28 320.71 9.39C387.37 -9.07 443.18 -0.13 477.87 34.56C512.56 69.25 521.5 125.07 503.04 191.72C497.16 213 488.68 234.59 477.9 256.06ZM324.72 23.87C307.57 28.62 290.19 35.14 272.82 43.24C298.88 57.78 324.7 75.65 349.33 96.36C357.41 90.01 367.59 86.21 378.64 86.21C387.2 86.21 395.6 88.52 402.93 92.87L395.25 105.79C390.25 102.81 384.5 101.24 378.64 101.24C360.69 101.24 346.09 115.84 346.09 133.79C346.09 151.75 360.69 166.35 378.64 166.35C396.59 166.35 411.2 151.75 411.2 133.79C411.2 126.48 408.83 119.58 404.36 113.82L416.21 104.6C422.76 113.02 426.22 123.11 426.22 133.79C426.22 144.84 422.42 155.02 416.08 163.11C436.79 187.73 454.66 213.55 469.19 239.61C477.3 222.25 483.82 204.86 488.56 187.71C505.51 126.5 497.94 75.88 467.25 45.19C436.55 14.49 385.93 6.92 324.72 23.87ZM31.89 211.26C36.95 209.43 42.4 208.42 48.08 208.42C52.7 208.42 57.2 209.08 61.48 210.32C80.46 181.54 103.05 153.96 128.72 128.29C163.34 93.67 201.29 64.78 239.98 43.2C160.73 6.08 86.24 4.57 45.62 45.19C10.73 80.07 5.86 140.31 31.89 211.26ZM128.68 496.87C162 496.87 200.22 487.37 239.95 468.78C201.27 447.2 163.33 418.32 128.72 383.71C103.04 358.03 80.44 330.45 61.46 301.65C57.21 302.9 52.73 303.58 48.08 303.58C42.4 303.58 36.95 302.58 31.89 300.74C5.86 371.7 10.73 431.93 45.62 466.81C65.79 486.98 94.69 496.87 128.68 496.87ZM256.39 460.61C266.84 455.11 277.35 449 287.88 442.28C284.75 435.94 282.98 428.82 282.98 421.28C282.98 412.71 285.28 404.32 289.64 396.99L302.55 404.67C299.57 409.68 298 415.42 298 421.28C298 439.23 312.61 453.83 330.56 453.83C348.51 453.83 363.11 439.23 363.11 421.28C363.11 403.33 348.51 388.72 330.56 388.72C323.25 388.73 316.34 391.09 310.59 395.56L301.37 383.7C309.78 377.16 319.87 373.7 330.56 373.7C342.25 373.7 352.95 377.94 361.25 384.96C365.4 381.06 369.52 377.09 373.52 373.09C409.91 336.69 439.74 296.6 461.05 256C446.51 228.38 427.77 200.42 405.06 173.34C397.5 178.41 388.41 181.37 378.64 181.37C352.41 181.37 331.06 160.03 331.06 133.79C331.06 124.02 334.02 114.94 339.09 107.37C312.01 84.67 284.05 65.92 256.43 51.37C215.83 72.69 175.74 102.52 139.35 138.91C114.91 163.35 93.36 189.54 75.18 216.84C81.61 221.3 86.96 227.37 90.63 234.69L77.2 241.43C71.64 230.34 60.48 223.45 48.08 223.45C30.13 223.45 15.53 238.05 15.53 256C15.53 273.95 30.13 288.55 48.08 288.55C66.03 288.55 80.64 273.95 80.64 256C80.64 255.03 80.59 254.05 80.51 253.09L95.48 251.77C95.6 253.17 95.66 254.59 95.66 256C95.66 272.19 87.53 286.5 75.15 295.1C93.33 322.43 114.9 348.63 139.35 373.09C175.73 409.47 215.81 439.29 256.39 460.61ZM467.25 466.81C507.87 426.19 506.35 351.71 469.23 272.45C447.65 311.14 418.76 349.09 384.14 383.71C379.88 387.97 375.5 392.21 371.07 396.35C375.55 403.61 378.14 412.14 378.14 421.28C378.14 447.52 356.79 468.86 330.56 468.86C317.26 468.86 305.23 463.37 296.59 454.55C288.69 459.61 280.77 464.35 272.86 468.77C290.21 476.87 307.58 483.39 324.72 488.13C385.93 505.08 436.55 497.51 467.25 466.81Z" />
		<path id="Layer" class="shp0" d="M379.64 333.63L364.12 333.63L364.12 295.78C364.12 279.04 352.86 264.17 336.75 259.62L331.13 258.04L327.05 272.5L332.67 274.09C342.34 276.81 349.09 285.73 349.09 295.78L349.09 333.63L322.04 333.63L322.04 313.1L307.02 313.1L307.02 333.63L239.4 333.63L239.4 348.66L379.64 348.66L379.64 333.63Z" />
		<path id="Layer" fill-rule="evenodd" class="shp0" d="M281.28 259.59C274.96 266.51 266.02 270.53 256.43 270.53C246.85 270.53 237.91 266.52 231.59 259.59L180.2 274.09C170.53 276.81 163.78 285.73 163.78 295.78L163.78 333.63L190.82 333.63L190.82 313.1L205.85 313.1L205.85 333.63L224.38 333.63L224.38 348.66L133.23 348.66L133.23 333.63L148.75 333.63L148.75 295.78C148.75 279.04 160 264.17 176.12 259.62L226.88 245.3L226.88 225.35C212.99 215.88 203.84 199.93 203.84 181.88L203.84 159.84C203.84 130.84 227.44 107.25 256.43 107.25C285.43 107.25 309.02 130.84 309.02 159.84L309.02 181.88C309.02 199.93 299.88 215.88 285.98 225.35L285.98 245.3L316.68 253.96L312.59 268.43L281.28 259.59ZM221.02 147.32L278.2 147.32L294 168.21L294 159.84C294 139.13 277.14 122.27 256.43 122.27C240.11 122.27 226.19 132.74 221.02 147.32ZM256.43 219.44C273.83 219.44 288.5 207.55 292.75 191.47L270.73 162.34L218.87 162.34L218.87 181.88C218.87 202.59 235.72 219.44 256.43 219.44ZM256.43 255.5C262.14 255.5 267.43 252.94 270.96 248.57L270.96 232.41C266.34 233.74 261.47 234.46 256.43 234.46C251.39 234.46 246.52 233.74 241.91 232.41L241.91 248.57C245.44 252.94 250.73 255.5 256.43 255.5Z" />
		<path id="Layer" class="shp0" d="M296.11 295L274.95 289.03L279.03 274.57L300.19 280.54L296.11 295Z" />
		<path id="Layer" class="shp0" d="M329.1 288.66L325.02 303.13L310.55 299.05L314.64 284.59L329.1 288.66Z" />
		<path id="Layer" class="shp0" d="M371.13 126.28L386.15 126.28L386.15 141.31L371.13 141.31L371.13 126.28Z" />
		<path id="Layer" class="shp0" d="M323.05 413.77L338.07 413.77L338.07 428.79L323.05 428.79L323.05 413.77Z" />
		<path id="Layer" class="shp0" d="M40.57 248.49L55.59 248.49L55.59 263.51L40.57 263.51L40.57 248.49Z" />
	</g>
</svg>